<svg xmlns="http://www.w3.org/2000/svg" xmlns:xlink="http://www.w3.org/1999/xlink" width="500" zoomAndPan="magnify" viewBox="0 0 375 374.999991" height="500" preserveAspectRatio="xMidYMid meet" version="1.0"><defs><clipPath id="77fb749699"><path d="M 116 124.191406 L 207.894531 124.191406 L 207.894531 278.914062 L 116 278.914062 Z M 116 124.191406 " clip-rule="nonzero"/></clipPath><clipPath id="00e70fb733"><path d="M 212.199219 124.191406 L 303.917969 124.191406 L 303.917969 278.914062 L 212.199219 278.914062 Z M 212.199219 124.191406 " clip-rule="nonzero"/></clipPath><clipPath id="817e7ec807"><path d="M 124 95.941406 L 296 95.941406 L 296 149 L 124 149 Z M 124 95.941406 " clip-rule="nonzero"/></clipPath><clipPath id="37bb47a6d3"><path d="M 71.417969 166 L 165 166 L 165 260 L 71.417969 260 Z M 71.417969 166 " clip-rule="nonzero"/></clipPath></defs><g clip-path="url(#77fb749699)"><path fill="#39b54a" d="M 116.097656 124.355469 L 116.097656 162.027344 C 116.675781 162.007812 117.257812 162 117.835938 162 C 131.4375 162 144.378906 167.351562 153.996094 176.945312 C 163.613281 186.542969 168.976562 199.460938 168.976562 213.03125 C 168.976562 226.601562 163.613281 239.519531 153.996094 249.117188 C 149.304688 253.800781 143.816406 257.476562 137.847656 260.007812 L 207.6875 278.910156 L 207.6875 152.714844 C 207.535156 152.691406 207.386719 152.652344 207.242188 152.597656 C 176.863281 143.179688 146.472656 133.789062 116.097656 124.355469 " fill-opacity="1" fill-rule="evenodd"/></g><g clip-path="url(#00e70fb733)"><path fill="#39b54a" d="M 290.699219 226.066406 L 264.347656 234.078125 C 263.421875 234.265625 262.726562 235.082031 262.726562 236.0625 L 262.726562 251.910156 C 262.699219 253.257812 264.039062 254.3125 265.347656 253.878906 L 291.699219 245.871094 C 292.625 245.679688 293.320312 244.863281 293.320312 243.886719 L 293.320312 228.035156 C 293.34375 226.671875 292.015625 225.652344 290.699219 226.066406 Z M 300.402344 125.449219 C 302.957031 124.632812 303.242188 124.570312 303.933594 124.355469 L 303.933594 252.539062 C 303.945312 253.441406 303.347656 254.277344 302.433594 254.523438 L 212.363281 278.914062 L 212.363281 152.710938 C 212.507812 152.6875 212.652344 152.648438 212.789062 152.597656 L 300.402344 125.449219 " fill-opacity="1" fill-rule="evenodd"/></g><path fill="#39b54a" d="M 266.789062 237.554688 L 289.253906 230.730469 L 289.253906 242.390625 L 266.789062 249.21875 L 266.789062 237.554688 " fill-opacity="1" fill-rule="evenodd"/><g clip-path="url(#817e7ec807)"><path fill="#39b54a" d="M 233.558594 110.613281 C 234.632812 110.292969 235.765625 110.894531 236.089844 111.96875 C 236.414062 113.039062 235.804688 114.171875 234.730469 114.496094 L 167.4375 134.832031 C 181.253906 139 195.027344 143.3125 208.652344 148.097656 L 210.0625 148.308594 L 211.386719 148.097656 L 295.875 121.917969 L 210.015625 95.972656 L 124.183594 121.910156 C 136.605469 125.703125 149.074219 129.339844 161.519531 133.058594 C 172.085938 128.976562 226.484375 112.75 233.558594 110.613281 " fill-opacity="1" fill-rule="evenodd"/></g><g clip-path="url(#37bb47a6d3)"><path fill="#39b54a" d="M 80.859375 213.03125 C 80.859375 222.851562 84.730469 232.179688 91.691406 239.125 C 98.652344 246.066406 107.996094 249.929688 117.835938 249.929688 C 127.679688 249.929688 137.023438 246.066406 143.984375 239.125 C 150.941406 232.179688 154.8125 222.851562 154.8125 213.03125 C 154.8125 203.210938 150.941406 193.882812 143.984375 186.941406 C 137.023438 179.996094 127.679688 176.132812 117.835938 176.132812 C 107.996094 176.132812 98.652344 179.996094 91.691406 186.941406 C 84.730469 193.882812 80.859375 203.210938 80.859375 213.03125 Z M 117.835938 166.710938 C 130.1875 166.710938 141.929688 171.566406 150.660156 180.277344 C 159.390625 188.992188 164.257812 200.707031 164.257812 213.03125 C 164.257812 225.355469 159.390625 237.070312 150.660156 245.785156 C 141.929688 254.5 130.1875 259.351562 117.835938 259.351562 C 105.484375 259.351562 93.746094 254.5 85.015625 245.785156 C 76.28125 237.070312 71.417969 225.355469 71.417969 213.03125 C 71.417969 200.707031 76.285156 188.992188 85.015625 180.277344 C 93.746094 171.566406 105.484375 166.710938 117.835938 166.710938 " fill-opacity="1" fill-rule="evenodd"/></g><path fill="#39b54a" d="M 111.261719 219.210938 L 133.257812 197.253906 C 135.101562 195.417969 138.09375 195.417969 139.9375 197.253906 C 141.777344 199.09375 141.777344 202.078125 139.9375 203.917969 L 115.019531 228.785156 C 113.316406 230.480469 110.65625 230.664062 108.753906 229.183594 L 96.175781 219.410156 C 94.125 217.8125 93.761719 214.851562 95.359375 212.808594 C 96.960938 210.761719 99.921875 210.398438 101.972656 211.992188 L 111.261719 219.210938 " fill-opacity="1" fill-rule="evenodd"/></svg>